<svg xmlns="http://www.w3.org/2000/svg" viewBox="215 290 1570 420" width="1570" height="420"><title>Smarity</title><g fill="#FFFFFF"><path d="M 622.91 491.00 L 622.63 607.96 L 558.72 608.16 L 558.66 495.58 C 557.44 484.59 555.00 473.89 546.44 466.38 C 533.57 455.10 512.42 454.99 499.66 466.55 C 491.79 473.69 489.49 484.06 488.37 494.23 L 488.35 608.12 L 423.79 607.91 L 423.89 412.25 L 488.13 412.20 L 488.71 435.77 C 497.73 426.58 505.89 418.99 516.92 413.92 C 551.83 397.91 596.48 407.69 616.12 442.98 L 624.90 433.28 C 646.46 409.46 677.84 401.19 708.62 409.81 C 741.64 419.06 756.44 443.44 757.53 477.49 L 757.46 608 L 693.19 608.16 L 693.18 502.88 C 693.51 478.83 683.59 458.92 659.06 457.87 C 639.30 457.04 624.48 470.19 622.91 491.00"/><path d="M 376.41 576.75 C 355.46 609.65 300.19 611.80 263.84 602.88 C 248.09 598.64 234 592.12 221.30 581.51 L 246.94 537.45 C 259.72 547.82 273.04 555.30 288.51 559.07 C 294.59 559.93 300.58 560.07 306.53 559.21 C 312.55 557.84 317.10 553.61 318.15 548.80 C 323.84 522.68 274.60 527.78 247.36 498.08 C 226.78 475.64 230.07 439.75 253.39 420.57 C 264.80 411.17 277.64 406.43 292.15 403.46 C 322.51 398.66 353.84 402.00 382.15 416.48 L 361.60 458.49 C 344.75 449.49 318.66 440.49 301.87 448.82 C 298.08 451.35 296.02 455.05 295.90 459.11 C 295.17 482.93 365.75 474.29 382.42 519.73 C 389.26 538.37 387.12 559.92 376.41 576.75"/><path d="M 1116.56 508.67 L 1116.68 605.06 L 1052.73 604.94 L 1052.72 512.93 C 1052.13 477.03 1069.31 444.55 1098.58 424.05 C 1136.44 398.21 1186.15 396.88 1225.34 420.96 L 1205.20 463.67 C 1184.67 454.24 1161.89 453.24 1142.42 464.71 C 1126.81 473.91 1117.86 490.61 1116.56 508.67"/><path d="M 906.47 555.53 C 879.70 555.53 858.00 533.83 858.00 507.06 C 858.00 480.29 879.70 458.58 906.47 458.58 C 933.24 458.58 954.94 480.29 954.94 507.06 C 954.94 533.83 933.24 555.53 906.47 555.53 M 1016.90 409.31 L 952.95 409.44 L 952.50 429.96 C 936.72 413.54 917 405.03 895.07 404.10 C 840.06 401.76 797.09 440.10 791.66 494.00 C 788.05 529.82 798.12 563.23 825.42 587.27 C 852.81 611.39 892.77 617.14 926.16 602.03 C 936.66 597.28 944.05 589.25 952.87 581.24 L 953.12 605.68 L 1016.94 605.69 Z M 1016.90 409.31"/></g><g fill="#54D59C"><path d="M 1487.51 546.03 L 1503.34 596.96 C 1482.55 608.85 1457.31 612.82 1433.88 606.63 C 1402.64 598.37 1389.58 569.77 1389.44 538.42 L 1389.08 458.44 L 1359.99 458.32 L 1360.10 409.04 L 1389.23 409.01 L 1389.28 334.87 L 1453.42 334.90 L 1453.46 408.94 L 1494.99 409.03 L 1495.26 458.29 L 1453.43 458.25 L 1453.48 523.55 C 1454.41 538.55 1457.30 552.27 1471.92 551.82 C 1477.47 551.71 1481.76 549.42 1487.51 546.03"/><path d="M 1653.38 508.43 L 1578.75 508.67 L 1522.68 409.16 L 1598.96 408.98 L 1613.20 435.06 Z M 1653.38 508.43"/><path d="M 1725.42 508.74 L 1654.51 508.60 L 1703.05 409.00 L 1778.69 409.13 Z M 1725.42 508.74"/><path d="M 1661.80 631.98 L 1586.75 632.03 L 1653.72 509.75 L 1691.14 575.57 Z M 1661.80 631.98"/><path d="M 1624.43 704.36 L 1547.10 704.57 L 1585.16 634.64 Z M 1624.43 704.36"/><path d="M 1325.89 408.98 L 1325.97 605.03 L 1261.30 605.06 L 1261.23 409.01 Z M 1325.89 408.98"/><path d="M 1333.20 334.87 C 1333.20 356.65 1315.54 374.31 1293.76 374.31 C 1271.97 374.31 1254.31 356.65 1254.31 334.87 C 1254.31 313.08 1271.97 295.42 1293.76 295.42 C 1315.54 295.42 1333.20 313.08 1333.20 334.87"/></g></svg>
